<svg xmlns="http://www.w3.org/2000/svg" xmlns:xlink="http://www.w3.org/1999/xlink" width="371" height="268" viewBox="0 0 371 268">
  <defs>
    <filter id="Rectangle_334" x="0" y="0" width="336" height="268" filterUnits="userSpaceOnUse">
      <feOffset dy="8" input="SourceAlpha"/>
      <feGaussianBlur stdDeviation="12" result="blur"/>
      <feFlood flood-opacity="0.161"/>
      <feComposite operator="in" in2="blur"/>
      <feComposite in="SourceGraphic"/>
    </filter>
  </defs>
  <g id="Group_80" data-name="Group 80" transform="translate(-579.999 -238.171)">
    <g transform="matrix(1, 0, 0, 1, 580, 238.17)" filter="url(#Rectangle_334)">
      <rect id="Rectangle_334-2" data-name="Rectangle 334" width="264" height="196" rx="23" transform="translate(36 28)" fill="#fff" opacity="0.8"/>
    </g>
    <g id="Group_67" data-name="Group 67" transform="translate(616 266)">
      <path id="Path_318" data-name="Path 318" d="M902.86,502.725a27.271,27.271,0,0,1-8.674,6.138h0c-.306.145-.613.287-.923.42h0l0,0,0,0h0a0,0,0,0,1,0,0h-.007l0,0s0,0-.008,0l0,0,0,0h0s0,0-.008,0h0a54.892,54.892,0,0,1-6.7,2.4,92.929,92.929,0,0,1-41.275,2.156l-.785-.141v-31.85c.259-.11.522-.22.785-.326q2.574-1.066,5.211-1.959,3.793-1.3,7.692-2.223a83.313,83.313,0,0,1,25.932-2.1q2.374.177,4.736.51a35.71,35.71,0,0,1,9.79,2.651h0c.444.208.88.424,1.312.656a14.72,14.72,0,0,1,6.369,6.24,12.008,12.008,0,0,1,1.068,3.138v.008c.078.377.133.758.177,1.135A17.448,17.448,0,0,1,902.86,502.725Z" transform="translate(-580.954 -354.249)" fill="#f2f2f2"/>
      <path id="Path_319" data-name="Path 319" d="M907.517,510.352a.546.546,0,0,1-.118.016q-10.09.442-20.152,1.311h-.012c-.027,0-.051,0-.078.008q-10.331.9-20.619,2.242c-.291.039-.577.079-.864.114q-7.115.948-14.2,2.1-3.127.512-6.243,1.068c-.263.047-.522.09-.785.141v-1.19c.263-.051.526-.094.785-.141q10.379-1.838,20.828-3.208,2.627-.353,5.262-.668,7.61-.919,15.244-1.586l1.115-.094q9.772-.83,19.571-1.26a.369.369,0,0,1,.094.008C907.968,509.272,908.1,510.215,907.517,510.352Z" transform="translate(-580.954 -375.027)" fill="#fff"/>
      <path id="Path_320" data-name="Path 320" d="M926.21,535.931a32.154,32.154,0,0,1-22.562-9.373,30.556,30.556,0,0,1-4.392-5.525c-.4-.641-1.334.066-.938.7a33.323,33.323,0,0,0,20.725,14.575,31.735,31.735,0,0,0,7.318.783C927.112,537.087,926.957,535.926,926.21,535.931Z" transform="translate(-613.617 -382.055)" fill="#fff"/>
      <path id="Path_321" data-name="Path 321" d="M858.13,480.95a.664.664,0,0,1-.491.444,25.611,25.611,0,0,0-5.529,2.16,26.861,26.861,0,0,0-6.884,5.2c-.106.106-.208.212-.306.322-.165.173-.322.35-.479.53V487.9c.251-.267.514-.53.785-.781a28.23,28.23,0,0,1,5.211-3.943Q854.23,481.877,858.13,480.95Z" transform="translate(-580.954 -357.865)" fill="#fff"/>
      <path id="Path_322" data-name="Path 322" d="M964.34,482.793a27.253,27.253,0,0,0-12.731,11.225.589.589,0,0,0,.311.767.6.6,0,0,0,.767-.311,25.936,25.936,0,0,1,12.093-10.6.586.586,0,0,0-.44-1.085Z" transform="translate(-646.012 -358.954)" fill="#fff"/>
      <path id="Path_323" data-name="Path 323" d="M915.35,367.64a27.222,27.222,0,0,1-4.83,9.464l0,0c-.2.267-.408.538-.624.8v0a54.672,54.672,0,0,1-4.873,5.258,91.664,91.664,0,0,1-20.957,14.973,87.776,87.776,0,0,1-38.836,10.221c-.1,0-.2,0-.306,0-.161,0-.322,0-.479,0V390.521c.255-.487.518-.974.785-1.457A86.209,86.209,0,0,1,857.8,371.857c.118-.13.24-.259.361-.385q2.756-2.91,5.78-5.541a82.785,82.785,0,0,1,26.423-15.648,35.559,35.559,0,0,1,9.9-2.2c.491-.027.978-.039,1.469-.035a14.743,14.743,0,0,1,8.541,2.568,12.174,12.174,0,0,1,2.4,2.281c.243.3.467.613.683.931v0A17.431,17.431,0,0,1,915.35,367.64Z" transform="translate(-580.954 -277.151)" fill="#f2f2f2"/>
      <path id="Path_324" data-name="Path 324" d="M913.363,361.263v0a.568.568,0,0,1-.094.067q-8.718,5.071-17.215,10.512l-.02.012a.7.7,0,0,1-.071.043q-8.735,5.6-17.223,11.568l-.715.5q-5.861,4.141-11.6,8.458-10.838,8.164-21.2,16.932c-.263.22-.522.444-.785.668V408.5c.259-.224.522-.448.785-.668q3.97-3.351,8.011-6.609c.805-.648,1.614-1.3,2.423-1.936q10.779-8.582,22.041-16.524h0q2.215-1.561,4.437-3.094,6.314-4.347,12.77-8.486c.31-.2.624-.4.938-.6q8.264-5.278,16.744-10.21a.591.591,0,0,1,.086-.043C913.269,360.1,913.822,360.874,913.363,361.263Z" transform="translate(-580.954 -284.585)" fill="#fff"/>
      <path id="Path_325" data-name="Path 325" d="M961.543,419.967a32.155,32.155,0,0,1-24.334,2.18,30.556,30.556,0,0,1-6.456-2.853c-.652-.382-1.151.678-.505,1.057a33.322,33.322,0,0,0,25.124,3.28,31.73,31.73,0,0,0,6.844-2.706c.663-.354-.014-1.31-.673-.959Z" transform="translate(-632.884 -320.371)" fill="#fff"/>
      <path id="Path_326" data-name="Path 326" d="M868.919,418.773a26.922,26.922,0,0,1-.374-6.232,28.4,28.4,0,0,1,4.233-13.41q2.76-2.909,5.782-5.542a.669.669,0,0,1-.23.622,25.7,25.7,0,0,0-3.892,4.48,27.142,27.142,0,0,0-4.352,19.984.476.476,0,0,1-.123.449.638.638,0,0,1-1.044-.352Z" transform="translate(-595.567 -304.809)" fill="#fff"/>
      <path id="Path_327" data-name="Path 327" d="M978.436,346.286a27.253,27.253,0,0,0-6.06,15.854.589.589,0,0,0,.632.535.6.6,0,0,0,.535-.632,25.937,25.937,0,0,1,5.787-15c.476-.584-.417-1.342-.894-.756Z" transform="translate(-658.652 -275.952)" fill="#fff"/>
      <path id="Path_328" data-name="Path 328" d="M860.073,345.13v0c-.027.338-.059.671-.094,1.005v.008A55.51,55.51,0,0,1,858.7,353.2c-.275,1.139-.573,2.27-.9,3.4-.039.145-.083.291-.126.432v0a90.05,90.05,0,0,1-3.432,9.68,93.821,93.821,0,0,1-9.02,16.579c-.255.381-.518.762-.785,1.139V322.94c.263-.016.522-.016.785-.008q.188,0,.377.012a11.906,11.906,0,0,1,3.251.632c.369.122.726.259,1.08.412a17.43,17.43,0,0,1,9.11,10.567A27.282,27.282,0,0,1,860.073,345.13Z" transform="translate(-580.954 -261.894)" fill="#f2f2f2"/>
      <path id="Path_329" data-name="Path 329" d="M849.935,324.6a.423.423,0,0,1-.043.11q-2.385,4.636-4.665,9.318c-.263.538-.526,1.08-.785,1.618v-2.67q.389-.8.785-1.6,1.761-3.569,3.581-7.107a.518.518,0,0,1,.047-.079C849.216,323.672,850.112,324.026,849.935,324.6Z" transform="translate(-580.955 -262.509)" fill="#fff"/>
      <path id="Path_330" data-name="Path 330" d="M860.2,379.895c-.07.126-.141.251-.22.377a31.351,31.351,0,0,1-4.092,5.592,33.737,33.737,0,0,1-10.661,7.763c-.259.126-.522.243-.785.353V392.7c.263-.118.526-.24.785-.365a31.755,31.755,0,0,0,13.889-12.888.646.646,0,0,1,.958-.185.453.453,0,0,1,.125.628Z" transform="translate(-580.954 -296.027)" fill="#fff"/>
      <path id="Path_331" data-name="Path 331" d="M437.713,180.458V210.3h-.785v-.318h-262.7v.318h-.785V180.458A12.971,12.971,0,0,1,186.4,167.5H424.755A12.971,12.971,0,0,1,437.713,180.458Z" transform="translate(-173.441 -167.5)" fill="#6c63ff"/>
      <path id="Path_332" data-name="Path 332" d="M424.755,167.5H186.4a12.971,12.971,0,0,0-12.958,12.958V350.88A12.971,12.971,0,0,0,186.4,363.839H424.755a12.971,12.971,0,0,0,12.958-12.958V180.458A12.971,12.971,0,0,0,424.755,167.5Zm12.173,183.38a12.189,12.189,0,0,1-12.173,12.173H186.4a12.189,12.189,0,0,1-12.173-12.173V180.458A12.189,12.189,0,0,1,186.4,168.285H424.755a12.189,12.189,0,0,1,12.173,12.173Z" transform="translate(-173.441 -167.5)" fill="#3f3d56"/>
      <circle id="Ellipse_84" data-name="Ellipse 84" cx="7.854" cy="7.854" r="7.854" transform="translate(45.551 13.547)" fill="#fff"/>
      <circle id="Ellipse_85" data-name="Ellipse 85" cx="7.854" cy="7.854" r="7.854" transform="translate(203.014 13.547)" fill="#fff"/>
      <path id="Path_333" data-name="Path 333" d="M283.423,387.759H236.7a7.474,7.474,0,0,1-7.465-7.465V358.212a7.474,7.474,0,0,1,7.465-7.465h46.719a7.474,7.474,0,0,1,7.465,7.465v22.081A7.474,7.474,0,0,1,283.423,387.759Z" transform="translate(-207.328 -278.79)" fill="#6c63ff"/>
      <path id="Path_334" data-name="Path 334" d="M485.821,387.759H439.1a7.474,7.474,0,0,1-7.465-7.465V358.212a7.474,7.474,0,0,1,7.465-7.465h46.719a7.474,7.474,0,0,1,7.465,7.465v22.081A7.474,7.474,0,0,1,485.821,387.759Z" transform="translate(-330.249 -278.79)" fill="#6c63ff"/>
      <path id="Path_335" data-name="Path 335" d="M485.471,532.35H438.752a7.7,7.7,0,0,1-7.692-7.692V502.577a7.7,7.7,0,0,1,7.692-7.692h46.719a7.7,7.7,0,0,1,7.692,7.692v22.081A7.7,7.7,0,0,1,485.471,532.35Z" transform="translate(-329.899 -366.328)" fill="#f2f2f2"/>
      <path id="Path_336" data-name="Path 336" d="M282.683,532.35H235.964a7.7,7.7,0,0,1-7.692-7.691V502.577a7.7,7.7,0,0,1,7.692-7.692h46.719a7.7,7.7,0,0,1,7.692,7.692v22.081A7.7,7.7,0,0,1,282.683,532.35Z" transform="translate(-206.741 -366.328)" fill="#f2f2f2"/>
      <path id="Path_337" data-name="Path 337" d="M687.87,532.35H641.151a7.7,7.7,0,0,1-7.692-7.692V502.577a7.7,7.7,0,0,1,7.692-7.692H687.87a7.7,7.7,0,0,1,7.692,7.692v22.081A7.7,7.7,0,0,1,687.87,532.35Z" transform="translate(-452.82 -366.328)" fill="#f2f2f2"/>
      <path id="Path_338" data-name="Path 338" d="M687.87,387.171H641.151a7.7,7.7,0,0,1-7.692-7.692V357.4a7.7,7.7,0,0,1,7.692-7.692H687.87a7.7,7.7,0,0,1,7.692,7.692V379.48A7.7,7.7,0,0,1,687.87,387.171Z" transform="translate(-452.82 -278.158)" fill="#f2f2f2"/>
      <circle id="Ellipse_86" data-name="Ellipse 86" cx="12.668" cy="12.668" r="12.668" transform="translate(40.067 77.794)" fill="#fff"/>
      <path id="Path_339" data-name="Path 339" d="M297.889,395.279a1.314,1.314,0,0,1-.791-.263l-.014-.011-2.977-2.279a1.323,1.323,0,0,1,1.609-2.1l1.928,1.479,4.557-5.943a1.323,1.323,0,0,1,1.854-.245l-.028.038.029-.038a1.324,1.324,0,0,1,.245,1.854l-5.36,6.991A1.323,1.323,0,0,1,297.889,395.279Z" transform="translate(-246.41 -299.984)" fill="#6c63ff"/>
      <circle id="Ellipse_87" data-name="Ellipse 87" cx="12.668" cy="12.668" r="12.668" transform="translate(119.77 77.612)" fill="#fff"/>
      <path id="Path_340" data-name="Path 340" d="M500.864,394.816a1.314,1.314,0,0,1-.791-.263l-.014-.011-2.977-2.279a1.323,1.323,0,1,1,1.609-2.1l1.928,1.479,4.557-5.943a1.323,1.323,0,0,1,1.854-.245l-.028.038.029-.038a1.324,1.324,0,0,1,.245,1.855l-5.36,6.991A1.323,1.323,0,0,1,500.864,394.816Z" transform="translate(-369.681 -299.703)" fill="#6c63ff"/>
      <path id="Path_341" data-name="Path 341" d="M703.187,481.326a4.218,4.218,0,0,0-.857-6.411l-7.073-37.765-8.6,3.19,9.657,36.119a4.241,4.241,0,0,0,6.874,4.868Z" transform="translate(-485.128 -331.265)" fill="#a0616a"/>
      <path id="Path_342" data-name="Path 342" d="M540.185,396.665a4.506,4.506,0,0,1,.009.705l16.724,12.872,4.743-1.948,3.875,6.773-8.061,4.264a3.4,3.4,0,0,1-4.035-.639l-16.717-17.234a4.467,4.467,0,1,1,3.463-4.793Z" transform="translate(-390.76 -304.228)" fill="#a0616a"/>
      <path id="Path_343" data-name="Path 343" d="M469.04,530.2h-4.814l-2.291-14.642h7.106Z" transform="translate(-280.544 -313.112)" fill="#a0616a"/>
      <path id="Path_344" data-name="Path 344" d="M632.588,722.584H617.065v-.2a6.042,6.042,0,0,1,6.042-6.042h9.481Z" transform="translate(-442.864 -500.826)" fill="#2f2e41"/>
      <path id="Path_345" data-name="Path 345" d="M515.04,530.2h-4.814l-2.29-14.642h7.105Z" transform="translate(-308.481 -313.112)" fill="#a0616a"/>
      <path id="Path_346" data-name="Path 346" d="M678.588,722.584H663.065v-.2a6.042,6.042,0,0,1,6.042-6.042h9.481Z" transform="translate(-470.801 -500.826)" fill="#2f2e41"/>
      <path id="Path_347" data-name="Path 347" d="M629.458,619.545a1.763,1.763,0,0,1-1.757-1.6l-4.2-56.423.2-.016,28.87-2.373.008.205,2.295,58.45a1.767,1.767,0,0,1-1.766,1.833H647.45a1.757,1.757,0,0,1-1.746-1.5l-7.687-47.218a.2.2,0,0,0-.39.028l-.349,46.62a1.769,1.769,0,0,1-1.674,1.752l-6.051.236Z" transform="translate(-446.775 -405.348)" fill="#2f2e41"/>
      <circle id="Ellipse_88" data-name="Ellipse 88" cx="9.645" cy="9.645" r="9.645" transform="translate(177.966 65.578)" fill="#a0616a"/>
      <path id="Path_348" data-name="Path 348" d="M632.03,465.332a47.531,47.531,0,0,1-12.475-1.7,1.771,1.771,0,0,1-1.271-1.84c1.3-19.513,1.6-34.656-1.127-45.134a17.594,17.594,0,0,1,1.45-12.9,16.983,16.983,0,0,1,15.055-8.923h0q.441.008.891.031c9.335.481,16.609,8.926,16.215,18.826l-1.878,47.187a1.743,1.743,0,0,1-1.106,1.588A44.858,44.858,0,0,1,632.03,465.332Z" transform="translate(-442.552 -305.559)" fill="#3f3d56"/>
      <path id="Path_349" data-name="Path 349" d="M610.175,429.541l-7.224-8.853a2.262,2.262,0,0,1,.595-3.374l9.786-5.831a6.283,6.283,0,0,1,7.916,9.759l-7.648,8.393a2.262,2.262,0,0,1-3.424-.094Z" transform="translate(-433.982 -314.824)" fill="#3f3d56"/>
      <path id="Path_350" data-name="Path 350" d="M672.129,423.93a2.259,2.259,0,0,1-1.243-1.416l-3.252-10.879A6.283,6.283,0,1,1,679,406.274l6.289,9.5a2.262,2.262,0,0,1-.927,3.3l-10.349,4.844a2.26,2.26,0,0,1-1.884.016Z" transform="translate(-473.21 -310.324)" fill="#3f3d56"/>
      <path id="Path_351" data-name="Path 351" d="M635.18,349.291l-7.149-1.636c-.737-.169-1.623-.491-1.726-1.24-.137-1.007,1.312-1.709,1.178-2.717-.129-.976-1.45-1.1-2.392-1.39a3.578,3.578,0,0,1-2.227-4.453,3.287,3.287,0,0,1-4.667.4,4.132,4.132,0,0,1-.781-4.845,5.61,5.61,0,0,1,4.211-2.843,8.88,8.88,0,0,1,5.114.953c.1-1.113,1.494-1.564,2.611-1.574a11.164,11.164,0,0,1,10.462,7.636c1.371,4.418.454,9.262-3.383,11.847Z" transform="translate(-442.804 -266.155)" fill="#2f2e41"/>
      <path id="Path_352" data-name="Path 352" d="M614.732,731.285H465.122a.393.393,0,1,1,0-.785h149.61a.393.393,0,0,1,0,.785Z" transform="translate(-350.347 -509.422)" fill="#3f3d56"/>
    </g>
  </g>
</svg>
