<svg xmlns="http://www.w3.org/2000/svg" xmlns:xlink="http://www.w3.org/1999/xlink" width="335" height="309.998" viewBox="0 0 335 309.998">
  <defs>
    <linearGradient id="linear-gradient" x1="0.5" x2="0.5" y2="1" gradientUnits="objectBoundingBox">
      <stop offset="0" stop-color="#6c63ff"/>
      <stop offset="1" stop-color="#5c63ff"/>
    </linearGradient>
    <filter id="Path_394" x="79.308" y="73.449" width="186.701" height="186.094" filterUnits="userSpaceOnUse">
      <feOffset dy="8" input="SourceAlpha"/>
      <feGaussianBlur stdDeviation="12" result="blur"/>
      <feFlood flood-opacity="0.161"/>
      <feComposite operator="in" in2="blur"/>
      <feComposite in="SourceGraphic"/>
    </filter>
  </defs>
  <g id="Group_70" data-name="Group 70" transform="translate(-123 -950.125)">
    <path id="Path_391" data-name="Path 391" d="M315.965,162.643c35.053-3.858,74.9-4.976,101.615,18.045,26.3,22.666,24.719,62.563,31.45,96.625,5.846,29.585,11.593,58.673,5.056,88.114-7.092,31.943-16.508,66.866-43.553,85.283-26.824,18.265-62.116,8.572-94.567,8.77-32.7.2-68.442,10.891-95.407-7.614-27.133-18.621-30.835-55.714-41.986-86.675-11.594-32.19-34.366-64.478-24.225-97.155,10.164-32.753,46.327-47.9,75.053-66.635,27.147-17.7,54.352-35.212,86.566-38.758" transform="translate(-19.707 790.092)" stroke="rgba(0,0,0,0)" stroke-width="1" fill="url(#linear-gradient)"/>
    <path id="Path_396" data-name="Path 396" d="M7.889,0H75.254a7.889,7.889,0,0,1,7.889,7.889V74.04a7.889,7.889,0,0,1-7.889,7.889H7.889A7.889,7.889,0,0,1,0,74.04V7.889A7.889,7.889,0,0,1,7.889,0Z" transform="translate(132.103 989.066)" fill="#fff" opacity="0.2"/>
    <path id="Path_393" data-name="Path 393" d="M7.889,0H74.647a7.889,7.889,0,0,1,7.889,7.889V74.04a7.889,7.889,0,0,1-7.889,7.889H7.889A7.889,7.889,0,0,1,0,74.04V7.889A7.889,7.889,0,0,1,7.889,0Z" transform="translate(375.464 989.066)" fill="#fff" opacity="0.2"/>
    <path id="Path_392" data-name="Path 392" d="M6.676,0H91.639a6.676,6.676,0,0,1,6.676,6.676V91.033a6.676,6.676,0,0,1-6.676,6.676H6.676A6.676,6.676,0,0,1,0,91.033V6.676A6.676,6.676,0,0,1,6.676,0Z" transform="translate(314.168 1023.658)" fill="#fff" opacity="0.2"/>
    <path id="Path_395" data-name="Path 395" d="M6.676,0H91.639a6.676,6.676,0,0,1,6.676,6.676V91.033a6.676,6.676,0,0,1-6.676,6.676H6.676A6.676,6.676,0,0,1,0,91.033V6.676A6.676,6.676,0,0,1,6.676,0Z" transform="translate(177.619 1023.658)" fill="#fff" opacity="0.2"/>
    <g transform="matrix(1, 0, 0, 1, 123, 950.13)" filter="url(#Path_394)">
      <path id="Path_394-2" data-name="Path 394" d="M6.676,0h101.35A6.676,6.676,0,0,1,114.7,6.676V107.418a6.676,6.676,0,0,1-6.676,6.676H6.676A6.676,6.676,0,0,1,0,107.418V6.676A6.676,6.676,0,0,1,6.676,0Z" transform="translate(115.31 101.45)" fill="#fff" opacity="0.8"/>
    </g>
    <g id="Group_68" data-name="Group 68" transform="translate(123 961.221)">
      <path id="Path_353" data-name="Path 353" d="M370.926,314.456a3.389,3.389,0,1,0,0,6.777h42.6v-1.478a6.344,6.344,0,0,1,2.856-5.3Z" transform="translate(-298.506 -222.42)" fill="#e6e6e6"/>
      <path id="Path_354" data-name="Path 354" d="M442.832,287.234h-14.4a3.389,3.389,0,1,1,0-6.777h14.4a3.389,3.389,0,0,1,0,6.777Z" transform="translate(-331.652 -202.823)" fill="#e6e6e6"/>
      <path id="Path_355" data-name="Path 355" d="M310.089,230.234H254.175a3.389,3.389,0,1,1,0-6.777h55.914a3.389,3.389,0,1,1,0,6.777Z" transform="translate(-231.21 -169.967)" fill="#e6e6e6"/>
      <path id="Path_356" data-name="Path 356" d="M318.876,196.234h-7.2a3.389,3.389,0,1,1,0-6.777h7.2a3.389,3.389,0,1,1,0,6.777Z" transform="translate(-264.354 -150.37)" fill="#e6e6e6"/>
      <path id="Path_357" data-name="Path 357" d="M393.566,342.293H340.855a7.209,7.209,0,0,1-7.2-7.2v-83.38a7.209,7.209,0,0,1,7.2-7.2h84.2a7.209,7.209,0,0,1,7.2,7.2v20.666h-.847V251.712a6.361,6.361,0,0,0-6.354-6.354h-84.2a6.361,6.361,0,0,0-6.354,6.354v83.38a6.361,6.361,0,0,0,6.354,6.354h52.711Z" transform="translate(-278.976 -182.103)" fill="#ccc"/>
      <path id="Path_358" data-name="Path 358" d="M272.57,245.658H234.146a7.209,7.209,0,0,1-7.2-7.2v-67.8a7.209,7.209,0,0,1,7.2-7.2h68.487a7.209,7.209,0,0,1,7.2,7.2v27.557h-.847V170.658a6.361,6.361,0,0,0-6.354-6.354H234.146a6.361,6.361,0,0,0-6.354,6.354v67.8a6.361,6.361,0,0,0,6.354,6.354H272.57Z" transform="translate(-217.468 -135.383)" fill="#ccc"/>
      <path id="Path_359" data-name="Path 359" d="M739.536,314.457a6.344,6.344,0,0,1,2.855,5.3v1.478h42.6a3.389,3.389,0,0,0,0-6.777Z" transform="translate(-512.93 -222.421)" fill="#e6e6e6"/>
      <path id="Path_360" data-name="Path 360" d="M747.331,283.846a3.393,3.393,0,0,1,3.389-3.389h14.4a3.389,3.389,0,0,1,0,6.777h-14.4A3.393,3.393,0,0,1,747.331,283.846Z" transform="translate(-517.423 -202.823)" fill="#e6e6e6"/>
      <path id="Path_361" data-name="Path 361" d="M823.587,226.846a3.393,3.393,0,0,1,3.389-3.389H882.89a3.389,3.389,0,1,1,0,6.777H826.976A3.393,3.393,0,0,1,823.587,226.846Z" transform="translate(-561.377 -169.967)" fill="#e6e6e6"/>
      <path id="Path_362" data-name="Path 362" d="M881.087,192.846a3.393,3.393,0,0,1,3.389-3.389h7.2a3.389,3.389,0,1,1,0,6.777h-7.2A3.393,3.393,0,0,1,881.087,192.846Z" transform="translate(-594.521 -150.37)" fill="#e6e6e6"/>
      <path id="Path_363" data-name="Path 363" d="M694.634,342.293h52.711a7.209,7.209,0,0,0,7.2-7.2v-83.38a7.209,7.209,0,0,0-7.2-7.2h-84.2a7.209,7.209,0,0,0-7.2,7.2v20.666h.847V251.712a6.361,6.361,0,0,1,6.354-6.354h84.2a6.361,6.361,0,0,1,6.354,6.354v83.38a6.361,6.361,0,0,1-6.354,6.354H694.634Z" transform="translate(-464.747 -182.103)" fill="#ccc"/>
      <path id="Path_364" data-name="Path 364" d="M837.01,245.658h38.424a7.209,7.209,0,0,0,7.2-7.2v-67.8a7.209,7.209,0,0,0-7.2-7.2H806.947a7.209,7.209,0,0,0-7.2,7.2v27.557h.847V170.658a6.361,6.361,0,0,1,6.354-6.354h68.487a6.361,6.361,0,0,1,6.354,6.354v67.8a6.361,6.361,0,0,1-6.354,6.354H837.01Z" transform="translate(-547.635 -135.383)" fill="#ccc"/>
      <path id="Path_365" data-name="Path 365" d="M582.858,309.967H481.3a7.215,7.215,0,0,0-7.2,7.2v100.6a7.209,7.209,0,0,0,7.2,7.2h101.56a7.209,7.209,0,0,0,7.2-7.2v-100.6A7.209,7.209,0,0,0,582.858,309.967Zm6.354,107.8a6.362,6.362,0,0,1-6.354,6.354H481.3a6.362,6.362,0,0,1-6.354-6.354v-100.6a6.364,6.364,0,0,1,6.354-6.354h101.56a6.362,6.362,0,0,1,6.354,6.354Z" transform="translate(-359.928 -219.832)" fill="#3f3d56"/>
      <path id="Path_366" data-name="Path 366" d="M590.93,393.234H505.365a3.389,3.389,0,1,1,0-6.777H590.93a3.389,3.389,0,1,1,0,6.777Z" transform="translate(-375.998 -263.922)" fill="#ccc"/>
      <path id="Path_367" data-name="Path 367" d="M599.717,359.234H562.865a3.389,3.389,0,1,1,0-6.777h36.852a3.389,3.389,0,0,1,0,6.777Z" transform="translate(-409.141 -244.324)" fill="#6c63ff"/>
      <path id="Path_368" data-name="Path 368" d="M541.717,441.234H504.865a3.389,3.389,0,0,1,0-6.777h36.852a3.389,3.389,0,0,1,0,6.777Z" transform="translate(-375.71 -291.589)" fill="#ccc"/>
      <path id="Path_369" data-name="Path 369" d="M541.717,476.234H504.865a3.389,3.389,0,1,1,0-6.777h36.852a3.389,3.389,0,1,1,0,6.777Z" transform="translate(-375.71 -311.764)" fill="#ccc"/>
      <path id="Path_370" data-name="Path 370" d="M541.717,511.234H504.865a3.389,3.389,0,1,1,0-6.777h36.852a3.389,3.389,0,1,1,0,6.777Z" transform="translate(-375.71 -331.938)" fill="#ccc"/>
      <circle id="Ellipse_44" data-name="Ellipse 44" cx="6.324" cy="6.324" r="6.324" transform="translate(205.645 139.902)" fill="#6c63ff"/>
      <path id="Path_395-2" data-name="Path 395" d="M700.581,441.536a.656.656,0,0,1-.395-.131l-.007-.005-1.486-1.137a.66.66,0,1,1,.8-1.048l.963.738,2.275-2.968a.66.66,0,0,1,.926-.122h0l-.014.02.015-.02a.661.661,0,0,1,.122.926l-2.676,3.489a.661.661,0,0,1-.525.258Z" transform="translate(-489.238 -292.898)" fill="#fff"/>
      <path id="Path_371" data-name="Path 371" d="M311.411,116.839a9.829,9.829,0,1,1,9.829-9.829A9.829,9.829,0,0,1,311.411,116.839Zm0-18.811a8.982,8.982,0,1,0,8.982,8.982,8.982,8.982,0,0,0-8.982-8.982Z" transform="translate(-260.489 -97.181)" fill="#ccc"/>
      <path id="Path_395-3" data-name="Path 395" d="M318.241,119.122a.975.975,0,0,1-.587-.2l-.01-.008-2.21-1.691a.982.982,0,0,1,1.2-1.559l1.432,1.1,3.383-4.414a.982.982,0,0,1,1.377-.182h0l-.021.029.022-.029a.983.983,0,0,1,.182,1.377l-3.979,5.189a.983.983,0,0,1-.781.383Z" transform="translate(-268.251 -105.704)" fill="#ccc"/>
      <path id="Path_372" data-name="Path 372" d="M458.607,197.839a9.829,9.829,0,1,1,9.829-9.829A9.829,9.829,0,0,1,458.607,197.839Zm0-18.811a8.982,8.982,0,1,0,8.982,8.982,8.982,8.982,0,0,0-8.982-8.982Z" transform="translate(-345.334 -143.87)" fill="#ccc"/>
      <path id="Path_395-4" data-name="Path 395" d="M465.437,200.122a.976.976,0,0,1-.587-.2l-.01-.008-2.211-1.691a.982.982,0,0,1,1.2-1.559l1.432,1.1,3.383-4.414a.982.982,0,0,1,1.377-.182h0L470,193.2l.022-.029a.983.983,0,0,1,.182,1.377l-3.979,5.189a.983.983,0,0,1-.781.383Z" transform="translate(-353.096 -152.393)" fill="#ccc"/>
      <circle id="Ellipse_44-2" data-name="Ellipse 44" cx="6.324" cy="6.324" r="6.324" transform="translate(205.645 154.728)" fill="#6c63ff"/>
      <path id="Path_395-5" data-name="Path 395" d="M700.581,476.536a.656.656,0,0,1-.395-.131l-.007-.005-1.486-1.137a.66.66,0,1,1,.8-1.048l.963.738,2.275-2.968a.66.66,0,0,1,.926-.122h0l-.014.02.015-.02a.661.661,0,0,1,.122.926l-2.676,3.489a.661.661,0,0,1-.525.258Z" transform="translate(-489.238 -313.072)" fill="#fff"/>
      <circle id="Ellipse_44-3" data-name="Ellipse 44" cx="6.324" cy="6.324" r="6.324" transform="translate(205.645 169.583)" fill="#6c63ff"/>
      <path id="Path_395-6" data-name="Path 395" d="M700.581,511.607a.656.656,0,0,1-.395-.131l-.007-.005-1.486-1.137a.66.66,0,0,1,.8-1.048l.963.738,2.275-2.968a.66.66,0,0,1,.926-.122h0l-.014.02.015-.02a.661.661,0,0,1,.122.926l-2.676,3.489a.661.661,0,0,1-.525.258Z" transform="translate(-489.238 -333.287)" fill="#fff"/>
      <path id="Path_373" data-name="Path 373" d="M597.8,262.839c-6.671-.114-9.7-5.175-9.7-9.83s3.032-9.716,9.689-9.828h.014c6.657.114,9.689,5.175,9.689,9.83S604.451,262.727,597.8,262.839Zm-.007-18.811c-6.079.106-8.848,4.729-8.849,8.981s2.771,8.879,8.856,8.983c6.07-.1,8.841-4.728,8.842-8.981s-2.769-8.875-8.849-8.983Z" transform="translate(-425.636 -181.336)" fill="#6c63ff"/>
      <path id="Path_374" data-name="Path 374" d="M609.723,261.859c1.7,2.954-2.967,4.108-4.753,2.328l.447-.956c2.9,2.508,5.461-1.836,1.027-1.423v-1.047c4.061.328,1.78-3.76-.925-1.342l-.437-.956c2.2-2.288,7.154.479,3.66,2.765A1.742,1.742,0,0,1,609.723,261.859Z" transform="translate(-435.365 -189.651)" fill="#6c63ff"/>
      <path id="Path_375" data-name="Path 375" d="M738.607,197.839a9.829,9.829,0,1,1,9.829-9.829A9.829,9.829,0,0,1,738.607,197.839Zm0-18.811a8.982,8.982,0,1,0,8.982,8.982,8.982,8.982,0,0,0-8.982-8.982Z" transform="translate(-506.728 -143.87)" fill="#ccc"/>
      <path id="Path_376" data-name="Path 376" d="M751,198.667H749.97v1.413H748.69v-1.413h-3.151v-.976l3.385-4.849h1.047v4.8H751Zm-2.308-1.027v-2.755l-1.911,2.755Z" transform="translate(-516.389 -152.321)" fill="#ccc"/>
      <path id="Path_377" data-name="Path 377" d="M884.212,116.839a9.829,9.829,0,1,1,9.829-9.829A9.829,9.829,0,0,1,884.212,116.839Zm0-18.811a8.982,8.982,0,1,0,8.982,8.982,8.982,8.982,0,0,0-8.982-8.982Z" transform="translate(-590.656 -97.181)" fill="#ccc"/>
      <path id="Path_378" data-name="Path 378" d="M895.579,114.648a2.018,2.018,0,0,1,.8.813,2.483,2.483,0,0,1,.285,1.2,2.4,2.4,0,0,1-.325,1.256,2.178,2.178,0,0,1-.935.844,3.164,3.164,0,0,1-1.413.3,4.072,4.072,0,0,1-1.342-.229,3.117,3.117,0,0,1-1.088-.615l.437-.956a3.291,3.291,0,0,0,2.013.752,1.311,1.311,0,0,0,1.032-2.272,1.361,1.361,0,0,0-.991-.361,2.056,2.056,0,0,0-.8.158,1.9,1.9,0,0,0-.661.462H891.8v-4.26h4.534v1.017h-3.253v1.972a2.248,2.248,0,0,1,1.3-.376,2.418,2.418,0,0,1,1.2.29Z" transform="translate(-600.559 -105.576)" fill="#ccc"/>
      <path id="Path_379" data-name="Path 379" d="M352.25,589.5a4.26,4.26,0,0,1,2.83-5.887l1.284-15.082,6.176,4.872-2.166,13.576a4.283,4.283,0,0,1-8.123,2.522Z" transform="translate(-289.476 -368.869)" fill="#ffb8b8"/>
      <path id="Path_380" data-name="Path 380" d="M358.875,528.19a1.9,1.9,0,0,1-1.654-1.809l-.715-17.116a37.741,37.741,0,0,1,3.647-17.83l6.34-13.286a5.689,5.689,0,0,1,4.273-2.969,5.456,5.456,0,0,1,4.759,1.69,7.151,7.151,0,0,1,.815,1.051,5.474,5.474,0,0,1,.289,5.212l-9.722,26.559-.748,17.3a1.906,1.906,0,0,1-2.13,1.81l-5.129-.612Z" transform="translate(-292.13 -315.032)" fill="#6c63ff"/>
      <path id="Path_381" data-name="Path 381" d="M114.63,654.8l4.755,2.087L129.7,639.542l-7.018-3.08Z" transform="translate(-66.074 -366.862)" fill="#ffb8b8"/>
      <path id="Path_382" data-name="Path 382" d="M314.267,772.021l9.365,4.11h0a6.517,6.517,0,0,1,3.348,8.588l-.085.194-15.333-6.73Z" transform="translate(-266.242 -486.164)" fill="#2f2e41"/>
      <path id="Path_383" data-name="Path 383" d="M265.341,666.134h5.193L273,646.1H265.34Z" transform="translate(-152.944 -372.419)" fill="#ffb8b8"/>
      <path id="Path_384" data-name="Path 384" d="M466.787,786.569h10.228a6.517,6.517,0,0,1,6.518,6.518v.212H466.787Z" transform="translate(-355.715 -494.55)" fill="#2f2e41"/>
      <path id="Path_385" data-name="Path 385" d="M331.851,637.556a1.916,1.916,0,0,1-.588-.093l-8.805-2.83a1.914,1.914,0,0,1-1.24-2.372l29.2-92.985,21.872-4.289.077.125c14.46,23.53,19.287,59.473,22.349,97.557a1.917,1.917,0,0,1-1.711,2.051l-9.627.963a1.9,1.9,0,0,1-2.029-1.4l-17.626-62.356a.635.635,0,0,0-1.2-.085L333.6,636.4a1.9,1.9,0,0,1-1.746,1.153Z" transform="translate(-271.761 -349.535)" fill="#2f2e41"/>
      <circle id="Ellipse_89" data-name="Ellipse 89" cx="10.404" cy="10.404" r="10.404" transform="translate(79.554 131.698)" fill="#ffb8b8"/>
      <path id="Path_386" data-name="Path 386" d="M379.754,501.708l-.071-.149a52.728,52.728,0,0,1-4.4-22,15.1,15.1,0,0,1,14.787-14.522h0a15.079,15.079,0,0,1,15.1,12.2,45.257,45.257,0,0,1-.1,19.2l-.031.132-.133.027Z" transform="translate(-302.957 -309.215)" fill="#6c63ff"/>
      <path id="Path_387" data-name="Path 387" d="M490.141,562.627a4.26,4.26,0,0,1-3.416-5.567l-11.983-9.249,7.44-2.553,10.239,9.174a4.283,4.283,0,0,1-2.28,8.194Z" transform="translate(-360.3 -355.456)" fill="#ffb8b8"/>
      <path id="Path_388" data-name="Path 388" d="M423.46,498.8l-.028-.045L410.8,478.294a5.688,5.688,0,0,1-.182-5.2,5.454,5.454,0,0,1,4-3.086h0a7.138,7.138,0,0,1,1.324-.115,5.473,5.473,0,0,1,4.538,2.58l17.061,22.558,14.14,10a1.906,1.906,0,0,1,.368,2.771l-3.292,3.98a1.9,1.9,0,0,1-2.434.429Z" transform="translate(-323.026 -312.015)" fill="#6c63ff"/>
      <path id="Path_389" data-name="Path 389" d="M333.461,407.073c.767-1.261,2.459-1.618,3.928-1.474a42.164,42.164,0,0,0,4.374.649c4.1-.032,7.263-5.027,5.539-8.746-1.413-3.05-4.943-4.389-8.136-5.44-6.694-2.2-14.384-4.321-20.459-.748a12.712,12.712,0,0,0-6.119,11.327c.137,2.812,1.214,5.7.3,8.365-1.051,3.074-4.383,4.723-7.532,5.52-5.52,1.4-11.339,1.173-16.894,2.427s-11.246,4.584-12.743,10.078c-.983,3.608.043,7.493,1.742,10.825a28.036,28.036,0,0,0,39.112,11.472c6.715-3.921,11.562-10.547,14.453-17.766a59.489,59.489,0,0,0,3.439-13.066,29.065,29.065,0,0,0-1.074-12.487,1.148,1.148,0,0,1,.067-.937Z" transform="translate(-245.363 -265.616)" fill="#2f2e41"/>
      <path id="Path_390" data-name="Path 390" d="M366.384,801.666H205a.424.424,0,0,1,0-.847H366.384a.424.424,0,0,1,0,.847Z" transform="translate(-204.572 -502.763)" fill="#3f3d56"/>
    </g>
  </g>
</svg>
